# xmcd
#
# Track frame offsets:
#	150
#	15153
#	29905
#	44404
#	59111
#	69612
#	83586
#	97938
#	114261
#	131983
#	144599
#	160982
#	176824
#	194048
#	207385
#	220634
#	235251
#	246174
#	261059
#	273417
#	291278
#	306455
#	318493
#	333803
#
# Disc length: 4680 seconds
#
# Revision: 0
# Processed by: cddbd v1.5.2PL0 Copyright (c) Steve Scherf et al.
# Submitted via: EZCDAudioConverter 2.4.0.1
#
DISCID=73124618
DTITLE=Various Artist - Explosão Sertaneja 7
DYEAR=2004
DGENRE=Sertanejo
TTITLE0=Cezar and Pauinho - Morto de Saudade Sua
TTITLE1=Cezar and Paulinho - Você é Tudo que Pedi Pra Deus
TTITLE2=Chico Rey and Paraná - Tranque a Porta e Me Beija
TTITLE3=Gian and Giovani - Amante Anônimo
TTITLE4=João Minieiro and Marciano - Viola Está Chorando
TTITLE5=Leandro and Leonardo - Não Aprendi a Dizer Adeus
TTITLE6=Mato Grosso and Mathias - De Igual Pra Igual (Acústico)
TTITLE7=Milionário and José Rico - Viva a Vida
TTITLE8=Milionário and José Rico - Vontade Dividida
TTITLE9=Roberta Miranda - Na Hora H
TTITLE10=Roberta Miranda - Vá Com Deus
TTITLE11=Roberta Miranda - Sol da Minha Vida
TTITLE12=Sula Miranda - Pela Estrada Afora
TTITLE13=Trio Parada Dura - Bobeou a Gente Pimba
TTITLE14=Trio Parada Dura - As Andorinhas
TTITLE15=Bruno and Marrone - Programa de Fim de Semana (Ao Vivo)
TTITLE16=Cezar and Paulinho - Pe de Bode (Pisa no Freio, Zé)
TTITLE17=Chrystian and Ralf - Poeira no Vento (Just In The Wind)
TTITLE18=Edson and Hudson - A Força da Paixão
TTITLE19=Leandro and Leonardo - Rumo a Goiânia
TTITLE20=Leonardo - Brincadeira Tem Hora
TTITLE21=Roberta Miranda - Atração Fatal
TTITLE22=Sérgio Reis Feat. Chitãozinho and Xororó - Menino da Porteira
TTITLE23=Zezé Di Camargo and Luciano - Pra Mudar a Minha Vida
EXTD=
EXTT0=
EXTT1=
EXTT2=
EXTT3=
EXTT4=
EXTT5=
EXTT6=
EXTT7=
EXTT8=
EXTT9=
EXTT10=
EXTT11=
EXTT12=
EXTT13=
EXTT14=
EXTT15=
EXTT16=
EXTT17=
EXTT18=
EXTT19=
EXTT20=
EXTT21=
EXTT22=
EXTT23=
PLAYORDER=
